<svg width="402" height="402" viewBox="0 0 402 402" xmlns="http://www.w3.org/2000/svg" preserveAspectRatio="xMidYMid">

 <g>
  <title>Layer 1</title>
  <g stroke="null" id="svg_1" fill="#4E8EF7">
   <circle stroke="null" id="svg_2" r="77.366272" cy="200.997757" cx="200.772347"/>
   <path stroke="null" id="svg_3" d="m368.056687,62.59783c0,-15.492361 -12.625745,-28.046185 -28.191185,-28.046185c-7.064726,0 -13.499528,2.601525 -18.448661,6.874504c-33.612204,-25.224483 -75.402255,-40.197878 -120.646752,-40.197878c-110.705552,0 -200.770092,89.617929 -200.770092,199.771737c0,110.15157 90.066789,199.771714 200.772341,199.771714c110.705574,0 200.770114,-89.620144 200.770114,-199.771714c0,-45.019026 -15.048394,-86.600778 -40.396974,-120.047723c4.294381,-4.91997 6.911209,-11.3272 6.911209,-18.354455l0,0l0,0zm-167.286598,331.452163c-106.980146,0 -194.019214,-86.605254 -194.019214,-193.052245c0,-106.446969 87.039069,-193.052223 194.019214,-193.052223c43.499203,0 83.695229,14.319623 116.090474,38.467996c-3.255792,4.574029 -5.186223,10.150008 -5.186223,16.182049c0,15.490101 12.621225,28.043925 28.186642,28.043925c6.064526,0 11.661665,-1.920811 16.260854,-5.160353c24.269328,32.233769 38.660698,72.229462 38.660698,115.516369c0.004498,106.449229 -87.03005,193.054483 -194.012445,193.054483l0,0l0,0z"/>
  </g>
 </g>
</svg>
